<svg xmlns="http://www.w3.org/2000/svg" viewBox="0 0 512 512" role="img" aria-label="PSCV Room">
  <defs>
    <linearGradient id="bg" x1="96" y1="40" x2="416" y2="472" gradientUnits="userSpaceOnUse">
      <stop stop-color="#F7FCFF"/>
      <stop offset="1" stop-color="#D9EEF7"/>
    </linearGradient>
    <linearGradient id="teal" x1="114" y1="65" x2="430" y2="438" gradientUnits="userSpaceOnUse">
      <stop stop-color="#2F9AB5"/>
      <stop offset="1" stop-color="#197D9C"/>
    </linearGradient>
  </defs>
  <circle cx="256" cy="256" r="238" fill="url(#bg)" stroke="url(#teal)" stroke-width="18"/>
  <g fill="none" stroke="#082A4F" stroke-linecap="round" stroke-linejoin="round">
    <path d="M204 143c-24-7-48 10-51 34-22 7-36 29-31 52-18 15-18 44 0 59" stroke-width="16"/>
    <path d="M308 143c24-7 48 10 51 34 22 7 36 29 31 52 18 15 18 44 0 59" stroke-width="16"/>
    <path d="M206 143c0-31 25-56 56-56s56 25 56 56" stroke-width="16"/>
    <path d="M256 88v177" stroke-width="16"/>
    <path d="M229 193c8 22 26 29 54 24" stroke-width="14"/>
    <path d="M284 193c-8 22-26 29-54 24" stroke-width="14"/>
    <path d="M256 265c0 25-18 41-43 45" stroke-width="16"/>
    <path d="M256 265c0 25 18 41 43 45" stroke-width="16"/>
  </g>
  <g transform="translate(74 205) rotate(-10)">
    <rect x="0" y="0" width="132" height="126" rx="14" fill="#fff" stroke="#082A4F" stroke-width="12"/>
    <path d="M32 37l14 14 25-34" stroke="#1F91AA" stroke-width="11" fill="none" stroke-linecap="round" stroke-linejoin="round"/>
    <path d="M86 35h35M86 67h35M86 99h35" stroke="#8FAEC1" stroke-width="9" stroke-linecap="round"/>
    <path d="M32 72l12 12 22-28M32 106l12 12 22-28" stroke="#1F91AA" stroke-width="10" fill="none" stroke-linecap="round" stroke-linejoin="round"/>
  </g>
  <g transform="translate(306 212) rotate(10)">
    <rect x="0" y="0" width="136" height="120" rx="15" fill="#fff" stroke="#082A4F" stroke-width="12"/>
    <path d="M0 34h136" stroke="#082A4X" stroke-width="12"/>
    <rect x="0" y="0" width="136" height="34" rx="15" fill="#2B83A2"/>
    <path d="M34-9v24M101-9v24" stroke="#fff" stroke-width="10" stroke-linecap="round"/>
    <rect x="66" y="57" width="48" height="42" rx="8" fill="#1F91AA"/>
    <path d="M78 78l10 10 19-24" stroke="#fff" stroke-width="8" fill="none" stroke-linecap="round" stroke-linejoin="round"/>
    <rect x="18" y="53" width="22" height="18" rx="4" fill="#A8C0DC"/>
    <rect x="48" y="53" width="22" height="18" rx="4" fill="#A8C0D0"/>
    <rect x="18" y="80" width="22" height="18" rx="4" fill="#A8C0D0"/>
  </g>
  <g transform="translate(171 292)">
    <path d="M84 0c50 0 91 30 91 67s-41 67-91 67c-14 0-28-2-40-7L9 145l11-33C3 100-7 84-7 67-7 30 34 0 84 0z" fill="url(#teal)" stroke="#fff" stroke-width="10"/>
    <circle cx="53" cy="63" r="13" fill="#fff"/>
    <circle cx="84" cy="55" r="17" fill="#fff"/>
    <circle cx="116" cy="63" r="13" fill="#fff"/>
    <path d="M30 106c4-22 19-34 38-34M100 72c19 0 34 12 38 34M61 107c3-26 19-40 23-40s20 14 23 40" fill="#fff"/>
  </g>
  <text x="256" y="429" text-anchor="middle" font-family="Arial, Helvetica, sans-serif" font-weight="800" font-size="58" fill="#082A4F">Psicología <tspan fill="#2390AA">6°</tspan></text>
  <text x="256" y="471" text-anchor="middle" font-family="Arial, Helvetica, sans-serif" font-weight="700" font-size="28" fill="#208DAC">Tareas y Materiales</text>
</svg>